<?xml version="1.0" standalone="no"?><!DOCTYPE svg PUBLIC "-//W3C//DTD SVG 1.1//EN" "http://www.w3.org/Graphics/SVG/1.1/DTD/svg11.dtd"><svg t="1705216108694" class="icon" viewBox="0 0 1024 1024" version="1.1" xmlns="http://www.w3.org/2000/svg" p-id="4896" xmlns:xlink="http://www.w3.org/1999/xlink" width="200" height="200"><path d="M928.282 277.57l-76.078-146.396c-18.802-36.082-65.373-64.339-106.022-64.339h-467.77c-40.593 0-87.326 28.094-106.292 63.906L96.096 274.148c-16.41 31.029-29.235 82.762-29.235 117.812v481.738c0 46.027 37.387 83.468 83.467 83.468h723.34c46.027 0 83.469-37.442 83.469-83.468V395.384c0-34.997-12.66-86.785-28.855-117.814zM145.33 300.177l75.97-143.353c9.51-17.933 36.734-34.344 57.112-34.344h467.771c20.27 0 47.278 16.41 56.679 34.398l76.08 146.34c3.586 6.956 6.955 15.87 10.052 25.433H134.19c3.37-10.705 7.065-20.813 11.14-28.474z m756.161 573.52c0 15.324-12.443 27.821-27.822 27.821h-723.34c-15.378 0-27.822-12.498-27.822-27.821V391.959c0-2.228 0.435-5.163 0.651-7.661h777.408c0.327 3.695 0.924 7.824 0.924 11.085v478.314z" p-id="4897" fill="#ffffff"></path><path d="M745.913 537.54L605.765 687.25l-56.568-56.46c-10.869-10.869-28.475-10.869-39.344 0-10.868 10.867-10.868 28.474 0 39.342l76.296 76.08c5.435 5.433 12.499 8.15 19.617 8.15 3.859 0 7.662-0.978 11.305-2.608 4.074-1.414 7.878-3.587 11.03-6.903L786.56 575.58c10.488-11.194 9.89-28.8-1.304-39.343-11.196-10.434-28.802-9.89-39.344 1.304zM429.046 578.187h-166.99c-15.325 0-27.823 12.445-27.823 27.823s12.499 27.823 27.823 27.823h166.991c15.378 0 27.823-12.445 27.823-27.823s-12.445-27.823-27.824-27.823zM344.6 696.87h-83.468c-15.378 0-27.822 12.498-27.822 27.821 0 15.433 12.444 27.823 27.822 27.823H344.6c15.38 0 27.823-12.39 27.823-27.823 0-15.323-12.444-27.822-27.823-27.822z" p-id="4898" fill="#ffffff"></path></svg>