<?xml version="1.0" standalone="no"?><!DOCTYPE svg PUBLIC "-//W3C//DTD SVG 1.1//EN" "http://www.w3.org/Graphics/SVG/1.1/DTD/svg11.dtd"><svg t="1705216299123" class="icon" viewBox="0 0 1024 1024" version="1.1" xmlns="http://www.w3.org/2000/svg" p-id="6311" xmlns:xlink="http://www.w3.org/1999/xlink" width="200" height="200"><path d="M399.719298 462.596491H62.877193a56.140351 56.140351 0 0 1-56.140351-56.140351v-336.842105a56.140351 56.140351 0 0 1 56.140351-56.140351h336.842105a56.140351 56.140351 0 0 1 56.140351 56.140351v336.842105a56.140351 56.140351 0 0 1-56.140351 56.140351z m-280.701754-112.280702h224.561403v-224.561403H119.017544zM399.719298 1024H62.877193a56.140351 56.140351 0 0 1-56.140351-56.140351v-336.842105a56.140351 56.140351 0 0 1 56.140351-56.140351h336.842105a56.140351 56.140351 0 0 1 56.140351 56.140351v336.842105a56.140351 56.140351 0 0 1-56.140351 56.140351z m-280.701754-112.280702h224.561403v-224.561403H119.017544zM961.122807 1024h-336.842105a56.140351 56.140351 0 0 1-56.140351-56.140351v-336.842105a56.140351 56.140351 0 0 1 56.140351-56.140351h336.842105a56.140351 56.140351 0 0 1 56.140351 56.140351v336.842105a56.140351 56.140351 0 0 1-56.140351 56.140351z m-280.701754-112.280702h224.561403v-224.561403h-224.561403z" fill="#e6e6e6" p-id="6312"></path><path d="M727.017544 476.631579L528.280702 277.894737a56.140351 56.140351 0 0 1 0-79.157895L727.017544 0l79.157895 79.157895-158.877193 158.877193 158.877193 158.877193z" fill="#e6e6e6" p-id="6313"></path><path d="M592.842105 181.894737H1017.263158v112.280702h-424.421053z" fill="#e6e6e6" p-id="6314"></path></svg>